<?xml version="1.0" encoding="UTF-8"?>
<svg id="Ebene_1" data-name="Ebene 1" xmlns="http://www.w3.org/2000/svg" xmlns:xlink="http://www.w3.org/1999/xlink" viewBox="0 0 172.2 182.64">
  <defs>
    <style>
      .cls-1 {
        stroke: #fff;
        stroke-miterlimit: 10;
      }

      .cls-1, .cls-2 {
        fill: none;
      }

      .cls-3 {
        fill: #fff;
      }

      .cls-4 {
        fill: #f7931e;
      }

      .cls-2 {
        stroke: #f7931e;
        stroke-linecap: round;
        stroke-linejoin: round;
        stroke-width: 3px;
      }

      .cls-5 {
        fill: url(#Unbenannter_Verlauf_183);
      }

      .cls-6 {
        fill: url(#Unbenannter_Verlauf_184);
      }
    </style>
    <linearGradient id="Unbenannter_Verlauf_184" data-name="Unbenannter Verlauf 184" x1="68.54" y1="91.85" x2="111.09" y2="136.18" gradientUnits="userSpaceOnUse">
      <stop offset="0" stop-color="#f7931e"/>
      <stop offset=".09" stop-color="#eb8e21" stop-opacity=".95"/>
      <stop offset=".25" stop-color="#cd8329" stop-opacity=".83"/>
      <stop offset=".46" stop-color="#9d7038" stop-opacity=".62"/>
      <stop offset=".72" stop-color="#59564b" stop-opacity=".34"/>
      <stop offset="1" stop-color="#093863" stop-opacity="0"/>
    </linearGradient>
    <linearGradient id="Unbenannter_Verlauf_183" data-name="Unbenannter Verlauf 183" x1="122.39" y1="118.38" x2="101.97" y2="144.6" gradientUnits="userSpaceOnUse">
      <stop offset="0" stop-color="#f7931e"/>
      <stop offset=".09" stop-color="#f0901f" stop-opacity=".97"/>
      <stop offset=".22" stop-color="#dd8925" stop-opacity=".89"/>
      <stop offset=".38" stop-color="#bf7d2e" stop-opacity=".77"/>
      <stop offset=".55" stop-color="#946d3a" stop-opacity=".59"/>
      <stop offset=".74" stop-color="#5e584a" stop-opacity=".36"/>
      <stop offset=".94" stop-color="#1d3f5d" stop-opacity=".08"/>
      <stop offset="1" stop-color="#093863" stop-opacity="0"/>
    </linearGradient>
  </defs>
  <path class="cls-6" d="M96.14,73.98l-59.3-30.35c-1.69-.87-3.7.34-3.74,2.24l-1.04,52.98c-.03,1.76.88,3.4,2.4,4.29l60.97,35.8c1.75,1.03,3.95-.24,3.93-2.27l-.35-58.01c-.01-1.97-1.12-3.78-2.88-4.68Z"/>
  <polyline class="cls-2" points="74.71 52.33 119.76 78.58 119.76 87.98"/>
  <path class="cls-4" d="M75.11,51.48c.03,1.73-1.35,2.99-3.09,2.8s-3.16-1.73-3.19-3.46,1.35-2.99,3.09-2.8c1.73.18,3.16,1.73,3.19,3.46Z"/>
  <path class="cls-4" d="M123.29,89.91c0,1.73-1.4,3.67-3.13,4.33s-3.13-.2-3.13-1.93,1.4-3.67,3.13-4.33c1.73-.66,3.13.2,3.13,1.93Z"/>
  <line class="cls-1" x1="42.26" y1="67.66" x2="83.96" y2="88.62"/>
  <line class="cls-1" x1="42.41" y1="76.28" x2="84.11" y2="97.24"/>
  <line class="cls-1" x1="42.55" y1="84.12" x2="84.24" y2="105.08"/>
  <line class="cls-1" x1="42.59" y1="91.32" x2="70.28" y2="105.23"/>
  <path class="cls-5" d="M111.5,107.73l23.57-13.03c2.27-1.26,5.06.39,5.06,2.98v21.64c0,2.17-1.18,4.18-3.07,5.24l-25.69,14.38c-1.87,1.05-4.17-.29-4.2-2.43l-.26-20.87c-.04-3.29,1.73-6.33,4.6-7.92Z"/>
  <polygon class="cls-3" points="118.2 116.58 117.8 121.67 122.5 124.8 133.47 111.48 132.69 106.78 122.7 119.51 118.2 116.58"/>
</svg>