<?xml version="1.0" encoding="UTF-8"?>
<svg id="Ebene_1" data-name="Ebene 1" xmlns="http://www.w3.org/2000/svg" xmlns:xlink="http://www.w3.org/1999/xlink" viewBox="0 0 172.2 182.64">
  <defs>
    <style>
      .cls-1 {
        fill: url(#Unbenannter_Verlauf_2);
      }

      .cls-2 {
        stroke-miterlimit: 10;
      }

      .cls-2, .cls-3 {
        fill: none;
        stroke: #fff;
      }

      .cls-3 {
        stroke-dasharray: 5;
        stroke-linecap: round;
        stroke-linejoin: round;
      }

      .cls-4 {
        fill: url(#Unbenannter_Verlauf_2-2);
      }

      .cls-5 {
        fill: url(#Unbenannter_Verlauf_28);
      }

      .cls-6 {
        fill: url(#Unbenannter_Verlauf_31);
      }

      .cls-7 {
        fill: url(#Unbenannter_Verlauf_30);
      }
    </style>
    <linearGradient id="Unbenannter_Verlauf_2" data-name="Unbenannter Verlauf 2" x1="115.29" y1="28.83" x2="46.59" y2="161.82" gradientUnits="userSpaceOnUse">
      <stop offset="0" stop-color="#f7931e"/>
      <stop offset="1" stop-color="#093863" stop-opacity="0"/>
    </linearGradient>
    <linearGradient id="Unbenannter_Verlauf_2-2" data-name="Unbenannter Verlauf 2" x1="103.85" y1="59.88" x2="165.25" y2="59.88" xlink:href="#Unbenannter_Verlauf_2"/>
    <linearGradient id="Unbenannter_Verlauf_30" data-name="Unbenannter Verlauf 30" x1="49.23" y1="86.63" x2="7.69" y2="119.57" gradientUnits="userSpaceOnUse">
      <stop offset="0" stop-color="#fff"/>
      <stop offset=".17" stop-color="#dae1e8" stop-opacity=".85"/>
      <stop offset=".54" stop-color="#7f97ad" stop-opacity=".48"/>
      <stop offset="1" stop-color="#093863" stop-opacity="0"/>
    </linearGradient>
    <linearGradient id="Unbenannter_Verlauf_31" data-name="Unbenannter Verlauf 31" x1="77.22" y1="103.92" x2="57.39" y2="119.97" gradientUnits="userSpaceOnUse">
      <stop offset="0" stop-color="#fff"/>
      <stop offset=".47" stop-color="#869db2" stop-opacity=".51"/>
      <stop offset=".83" stop-color="#2c5479" stop-opacity=".14"/>
      <stop offset="1" stop-color="#093863" stop-opacity="0"/>
    </linearGradient>
    <linearGradient id="Unbenannter_Verlauf_28" data-name="Unbenannter Verlauf 28" x1="131.6" y1="62.08" x2="167.52" y2="74.64" gradientUnits="userSpaceOnUse">
      <stop offset="0" stop-color="#fff"/>
      <stop offset="1" stop-color="#093863" stop-opacity="0"/>
    </linearGradient>
  </defs>
  <g>
    <polygon class="cls-1" points="6.94 99.18 103.18 44.35 161.82 78.14 63.34 140.59 6.94 99.18"/>
    <line class="cls-2" x1="118.4" y1="58.89" x2="106.99" y2="52.18"/>
    <line class="cls-2" x1="116.84" y1="60.01" x2="101.39" y2="51.06"/>
    <line class="cls-2" x1="115.49" y1="61.13" x2="100.05" y2="52.18"/>
    <line class="cls-2" x1="113.93" y1="62.03" x2="98.48" y2="53.07"/>
    <line class="cls-2" x1="111.91" y1="63.37" x2="96.47" y2="54.42"/>
    <line class="cls-2" x1="95.07" y1="55.54" x2="103.07" y2="60.13"/>
    <path class="cls-4" d="M103.85,43.9l2.71-1.51c.82-.45,1.81-.45,2.62.02l55.53,31.82c.65.37.72,1.29.14,1.76l-2.14,1.71-58.86-33.8Z"/>
    <path class="cls-7" d="M63.52,86.79l-8.86-5.32c-1.82-1.09-4.09-1.13-5.95-.09l-37.73,20.71,15.22,11.19,37.36-23.14c1.24-.78,1.22-2.59-.04-3.34Z"/>
    <polygon class="cls-6" points="70.28 100.3 59.54 106.79 73.64 115.29 85.05 109.03 70.28 100.3"/>
    <polygon class="cls-5" points="123.1 64.27 139.22 54.64 161.15 67.4 144.81 76.8 123.1 64.27"/>
    <line class="cls-2" x1="64.02" y1="72.55" x2="74.31" y2="78.59"/>
    <line class="cls-2" x1="62.34" y1="73.78" x2="72.19" y2="79.6"/>
    <line class="cls-2" x1="60.55" y1="74.67" x2="70.39" y2="80.49"/>
    <line class="cls-2" x1="58.53" y1="75.79" x2="65.02" y2="79.6"/>
    <line class="cls-2" x1="57.08" y1="110.59" x2="67.37" y2="116.64"/>
    <line class="cls-2" x1="55.4" y1="111.83" x2="65.25" y2="117.64"/>
    <line class="cls-2" x1="53.61" y1="112.72" x2="63.46" y2="118.54"/>
    <line class="cls-2" x1="51.59" y1="113.84" x2="58.09" y2="117.64"/>
    <line class="cls-2" x1="97.7" y1="84.07" x2="112.92" y2="92.8"/>
    <line class="cls-2" x1="96.13" y1="84.97" x2="110.9" y2="93.7"/>
    <line class="cls-2" x1="94.12" y1="86.31" x2="109.34" y2="94.82"/>
    <line class="cls-2" x1="92.33" y1="87.21" x2="107.32" y2="95.93"/>
    <line class="cls-2" x1="90.54" y1="88.33" x2="101.95" y2="94.82"/>
    <line class="cls-2" x1="87.18" y1="62.14" x2="123.66" y2="82.51"/>
    <line class="cls-2" x1="85.61" y1="63.03" x2="121.42" y2="83.63"/>
    <line class="cls-2" x1="83.6" y1="64.38" x2="106.65" y2="77.36"/>
    <line class="cls-2" x1="81.81" y1="65.27" x2="107.77" y2="80.49"/>
    <line class="cls-2" x1="80.02" y1="66.39" x2="91.43" y2="72.88"/>
  </g>
  <polyline class="cls-3" points="105.73 61.89 102.1 63.86 110.01 67.82 106.38 70.45"/>
  <polyline class="cls-3" points="93.23 74.61 89.61 76.58 97.51 80.53 93.89 83.17 95.35 84.11"/>
</svg>