<svg width="229" height="265" viewBox="0 0 229 265" fill="none" xmlns="http://www.w3.org/2000/svg">
<g clip-path="url(#clip0_2198_2139)">
<path d="M115.71 264.501L115.77 244.931L4.02002 179.241L5.00002 198.501L115.71 264.501Z" fill="url(#paint0_linear_2198_2139)"/>
<path d="M115.71 264.501L115.77 244.931L227.62 180.511L227.22 199.721L115.71 264.501Z" fill="url(#paint1_linear_2198_2139)"/>
<path opacity="0.9" d="M4.02002 179.241L115.96 126.331L227.62 180.511L115.65 244.871L4.02002 179.241Z" fill="#F7931E"/>
<path opacity="0.5" d="M4.45 180.13L0 49.5005L116 0.500488L229 39.5005L227 180.5L115.71 244.94L4.45 180.13Z" fill="#F7931E"/>
<path d="M73.8701 79.5903L167.19 24.0803C170.36 22.2003 174.38 24.4203 174.46 28.1103L176.85 134.03C176.97 139.56 174.05 144.71 169.25 147.45L76.5201 200.21C73.4201 201.98 69.5501 199.79 69.4701 196.22L67.0601 91.9003C66.9401 86.8703 69.5501 82.1603 73.8801 79.5903H73.8701Z" fill="#F4EFEA"/>
<path d="M83.5498 84.3105L176.87 28.8005C180.04 26.9205 184.06 29.1405 184.14 32.8305L186.53 138.751C186.65 144.281 183.73 149.431 178.93 152.171L86.1998 204.931C83.0998 206.701 79.2298 204.511 79.1498 200.941L76.7398 96.6205C76.6198 91.5905 79.2298 86.8805 83.5598 84.3105H83.5498Z" stroke="#C1BCB8" stroke-miterlimit="10"/>
<path d="M91.8701 108.6L159.12 71.9204" stroke="#C1BCB8" stroke-miterlimit="10"/>
<path d="M91.8701 126.94L159.12 90.2603" stroke="#C1BCB8" stroke-miterlimit="10"/>
<path d="M91.8701 144.06L159.12 107.38" stroke="#C1BCB8" stroke-miterlimit="10"/>
<path d="M159.89 111.941C159.89 111.941 113.46 129.781 90.7902 155.291C68.1202 180.801 98.3502 172.701 112.38 144.111C126.42 115.521 138.29 84.2605 137.21 73.7605C136.29 64.7805 130.64 57.0805 126.32 66.5105C124.68 70.1005 124.27 73.8405 124.91 77.1605C126.79 86.9705 133.67 110.991 156.65 119.301C156.65 119.301 184.72 126.891 181.48 111.571C181.48 111.571 179.32 104.591 159.89 111.961V111.941Z" stroke="#C1BCB8" stroke-width="3" stroke-miterlimit="10"/>
<path d="M64.3602 104.32C64.3602 104.32 -49.6498 131.43 91.0502 144.22C93.1702 144.41 107.35 144.72 109.47 144.66C130.53 144.11 239.66 139.45 212.71 104.55C210.46 101.64 207.64 99.2305 204.51 97.3005C198.19 93.4105 192.74 90.8605 178.07 84.7505" stroke="url(#paint2_linear_2198_2139)" stroke-width="4" stroke-linecap="round" stroke-linejoin="round"/>
</g>
<defs>
<linearGradient id="paint0_linear_2198_2139" x1="3.91195" y1="221.722" x2="115.832" y2="222.015" gradientUnits="userSpaceOnUse">
<stop stop-color="#F7931E"/>
<stop offset="0.98" stop-color="white" stop-opacity="0.4"/>
</linearGradient>
<linearGradient id="paint1_linear_2198_2139" x1="227.502" y1="222.469" x2="115.813" y2="222.176" gradientUnits="userSpaceOnUse">
<stop stop-color="#F7931E"/>
<stop offset="0.98" stop-color="white" stop-opacity="0.4"/>
</linearGradient>
<linearGradient id="paint2_linear_2198_2139" x1="18.7602" y1="114.72" x2="218.96" y2="114.72" gradientUnits="userSpaceOnUse">
<stop stop-color="#F7931E"/>
<stop offset="0.98" stop-color="white" stop-opacity="0.4"/>
</linearGradient>
<clipPath id="clip0_2198_2139">
<rect width="229" height="264" fill="white" transform="translate(0 0.500488)"/>
</clipPath>
</defs>
</svg>
