<?xml version="1.0" encoding="UTF-8"?>
<svg id="Ebene_1" data-name="Ebene 1" xmlns="http://www.w3.org/2000/svg" xmlns:xlink="http://www.w3.org/1999/xlink" viewBox="0 0 172.2 182.64">
  <defs>
    <style>
      .cls-1 {
        fill: #e2d7cf;
      }

      .cls-2 {
        fill: url(#Unbenannter_Verlauf_57);
      }
    </style>
    <linearGradient id="Unbenannter_Verlauf_57" data-name="Unbenannter Verlauf 57" x1="4127.9" y1="135.86" x2="4185.66" y2="35.52" gradientTransform="translate(4240.01) rotate(-180) scale(1 -1)" gradientUnits="userSpaceOnUse">
      <stop offset="0" stop-color="#f7d130" stop-opacity="0"/>
      <stop offset=".07" stop-color="#f7c730" stop-opacity=".16"/>
      <stop offset=".16" stop-color="#f7bb30" stop-opacity=".35"/>
      <stop offset=".25" stop-color="#f7b030" stop-opacity=".53"/>
      <stop offset=".35" stop-color="#f7a730" stop-opacity=".67"/>
      <stop offset=".46" stop-color="#f79f30" stop-opacity=".79"/>
      <stop offset=".57" stop-color="#f79a30" stop-opacity=".88"/>
      <stop offset=".69" stop-color="#f79630" stop-opacity=".95"/>
      <stop offset=".82" stop-color="#f79330" stop-opacity=".99"/>
      <stop offset="1" stop-color="#f79330"/>
    </linearGradient>
  </defs>
  <path class="cls-2" d="M86.13,50.88c.25,4.36.96,18.23.22,22.94l23.91-11.37c.3-.14.62-.27.94-.36,2.21-.63,10.3-2.16,16.88,6.7,0,0,6.51,10.66,10.66,22.79l-34.93,47.95s-4.74-25.45-10.06-36.41c-5.02-10.32-6.62-14.59-16.2-18.52-2.38-.98-5.05-1.12-7.48-.25-3.68,1.31-7.83,5.16-8,15.81,0,0-.59,15.1-11.54,12.73-4.56-.99-7.64-3.57-9.67-6.24-2.28-3-3.58-6.64-3.85-10.39l-3.56-49.29c-.03-.43.49-.66.78-.35l5.19,5.45,2.42-6.71c.1-.28.48-.32.64-.07l4.34,6.79,2.77-6.55c.2-.46.84-.49,1.08-.05l3.85,7.19,3.03-5.55c.23-.41.82-.41,1.04,0l3.63,6.73,3.25-6c.26-.47.93-.47,1.18,0l2.67,5.1,2.88-4.32c.3-.45.97-.4,1.2.09l2.44,5.12,2.62-4.29c.28-.45.94-.42,1.18.05l2.42,4.83,3.15-3.85c.3-.37.89-.18.92.3Z"/>
  <path class="cls-1" d="M71.49,65.44l.16,2.8c.03.55-.38,1.03-.93,1.07l-11.2.93c-1.1.09-2.06-.75-2.11-1.85l-.13-2.89c-.04-.87.66-1.6,1.53-1.6h11.07c.86,0,1.57.67,1.62,1.53Z"/>
  <path class="cls-1" d="M81.32,72.38v.76c0,.57-.4,1.07-.96,1.19l-32.81,7.17c-.77.17-1.51-.38-1.56-1.17l-.1-1.39c-.05-.72.45-1.36,1.16-1.48l33.64-5.61c.32-.05.62.2.62.53Z"/>
  <path class="cls-1" d="M108.16,75.65l1.76,2.29c.38.49.24,1.2-.28,1.52l-15.55,9.49c-.52.32-1.19.18-1.54-.31-.6-.83-1.55-2.08-2.41-2.9-.37-.35-.29-.95.15-1.19l16.66-9.14c.41-.23.93-.12,1.21.25Z"/>
  <path class="cls-1" d="M96.4,97.94l1.32,2.35c.4.72,1.34.92,2,.43l30.24-22.47c.45-.33.59-.94.34-1.44l-.59-1.18c-.24-.49-.86-.65-1.31-.35l-31.61,20.98c-.56.37-.73,1.1-.41,1.69Z"/>
  <path class="cls-1" d="M100.39,104.27l.72,3.05c.15.65.94.91,1.45.47l29.53-24.71c.27-.23.37-.59.27-.93l-.35-1.15c-.18-.6-.91-.83-1.4-.44l-29.9,22.81c-.27.21-.39.57-.31.9Z"/>
</svg>