<?xml version="1.0" encoding="UTF-8"?>
<svg id="Ebene_2" data-name="Ebene 2" xmlns="http://www.w3.org/2000/svg" xmlns:xlink="http://www.w3.org/1999/xlink" viewBox="0 0 92 116">
  <defs>
    <style>
      .cls-1 {
        fill: url(#Unbenannter_Verlauf_7);
      }

      .cls-2 {
        fill: #fff;
      }

      .cls-3 {
        fill: url(#Unbenannter_Verlauf_7-3);
      }

      .cls-4 {
        fill: url(#Unbenannter_Verlauf_7-2);
      }

      .cls-5 {
        fill: url(#Unbenannter_Verlauf_7-4);
      }

      .cls-6 {
        fill: none;
        fill-rule: evenodd;
        stroke: url(#Unbenannter_Verlauf_13);
        stroke-linecap: round;
        stroke-linejoin: round;
        stroke-width: 2px;
      }
    </style>
    <linearGradient id="Unbenannter_Verlauf_13" data-name="Unbenannter Verlauf 13" x1="20.5" y1="54.54" x2="90.05" y2="54.54" gradientUnits="userSpaceOnUse">
      <stop offset="0" stop-color="#fff" stop-opacity="0"/>
      <stop offset="1" stop-color="#1e96c7"/>
    </linearGradient>
    <linearGradient id="Unbenannter_Verlauf_7" data-name="Unbenannter Verlauf 7" x1="19" y1="37" x2="27" y2="37" gradientUnits="userSpaceOnUse">
      <stop offset="0" stop-color="#fff" stop-opacity="0"/>
      <stop offset="1" stop-color="#f79330"/>
    </linearGradient>
    <linearGradient id="Unbenannter_Verlauf_7-2" data-name="Unbenannter Verlauf 7" x1="31" y1="60" x2="39" y2="60" xlink:href="#Unbenannter_Verlauf_7"/>
    <linearGradient id="Unbenannter_Verlauf_7-3" data-name="Unbenannter Verlauf 7" x1="49" y1="85" x2="57" y2="85" xlink:href="#Unbenannter_Verlauf_7"/>
    <linearGradient id="Unbenannter_Verlauf_7-4" data-name="Unbenannter Verlauf 7" x1="71" y1="106" x2="79" y2="106" xlink:href="#Unbenannter_Verlauf_7"/>
  </defs>
  <path class="cls-6" d="M21.5.5v2.01c0,2.51.66,4.95,1.67,7.25.47,1.06.74,2.82.33,5.74-.43,3,.43,3.98,1.55,4.12,2.38.3,4.39,1.92,4.8,4.29.43,2.49.59,5.2-.35,6.6-2,3,8,7,11,12s-1,10,4,17c4.07,5.7,3.64,7.42,8.14,8.13,4.06.64,7.17,4.1,7.01,8.21-.02.52-.07,1.07-.15,1.66-1,7,5,15,11,17s12,1,14,5,4.55,9.07,4.55,9.07"/>
  <circle class="cls-1" cx="23" cy="37" r="4"/>
  <circle class="cls-4" cx="35" cy="60" r="4"/>
  <g>
    <path class="cls-2" d="M12.22,27.05h.68v1.68h.02l1.31-1.68h.75l-1.15,1.46,1.34,2.27h-.75l-1-1.74-.52.66v1.08h-.68v-3.73Z"/>
    <path class="cls-2" d="M15.3,28.89c0-1.2.67-1.91,1.65-1.91s1.65.71,1.65,1.91-.67,1.95-1.65,1.95-1.65-.74-1.65-1.95ZM15.99,26.4c0-.2.14-.35.35-.35s.34.15.34.35-.14.34-.34.34-.35-.15-.35-.34ZM17.9,28.89c0-.83-.38-1.32-.95-1.32s-.95.5-.95,1.32.37,1.36.95,1.36.95-.53.95-1.36ZM17.21,26.4c0-.2.14-.35.34-.35s.35.15.35.35-.14.34-.35.34-.34-.15-.34-.34Z"/>
    <path class="cls-2" d="M19.34,27.05h.68v3.16h1.54v.57h-2.22v-3.73Z"/>
    <path class="cls-2" d="M22.21,27.05h.72l1.12,2.05c.14.25.26.55.38.84h.02c-.04-.4-.09-.85-.09-1.27v-1.63h.63v3.73h-.72l-1.12-2.05c-.14-.25-.26-.55-.38-.84h-.02c.04.39.09.85.09,1.27v1.63h-.63v-3.73Z"/>
  </g>
  <g>
    <path class="cls-2" d="M24.39,49.6h1.27c.81,0,1.41.25,1.41.97,0,.37-.21.74-.54.86v.02c.43.1.75.4.75.94,0,.79-.65,1.16-1.52,1.16h-1.37v-3.95ZM25.6,51.23c.54,0,.77-.21.77-.55,0-.37-.25-.51-.76-.51h-.5v1.06h.49ZM25.69,52.99c.57,0,.89-.2.89-.64,0-.4-.31-.59-.89-.59h-.58v1.23h.58Z"/>
    <path class="cls-2" d="M27.8,51.56c0-1.27.71-2.03,1.74-2.03s1.74.75,1.74,2.03-.71,2.06-1.74,2.06-1.74-.78-1.74-2.06ZM30.55,51.56c0-.88-.4-1.4-1.01-1.4s-1.01.52-1.01,1.4.39,1.44,1.01,1.44,1.01-.56,1.01-1.44Z"/>
    <path class="cls-2" d="M32.08,49.6h.77l1.18,2.17c.14.27.28.58.4.89h.02c-.04-.42-.09-.91-.09-1.34v-1.73h.67v3.95h-.77l-1.18-2.17c-.14-.27-.28-.58-.4-.89h-.02c.04.41.09.9.09,1.34v1.73h-.67v-3.95Z"/>
    <path class="cls-2" d="M36.04,49.6h.77l1.18,2.17c.14.27.28.58.4.89h.02c-.04-.42-.09-.91-.09-1.34v-1.73h.67v3.95h-.77l-1.18-2.17c-.14-.27-.28-.58-.4-.89h-.02c.04.41.09.9.09,1.34v1.73h-.67v-3.95Z"/>
  </g>
  <circle class="cls-3" cx="53" cy="85" r="4"/>
  <g>
    <path class="cls-2" d="M23.38,75.47h1.25c.8,0,1.39.24,1.39.96,0,.37-.2.73-.54.84v.02c.43.1.74.4.74.92,0,.78-.64,1.14-1.5,1.14h-1.35v-3.89ZM24.57,77.07c.53,0,.76-.21.76-.54,0-.37-.25-.51-.75-.51h-.49v1.05h.48ZM24.66,78.81c.57,0,.87-.2.87-.63,0-.4-.3-.58-.87-.58h-.57v1.21h.57Z"/>
    <path class="cls-2" d="M27.7,75.47h.83l1.26,3.89h-.75l-.3-1.04h-1.29l-.3,1.04h-.72l1.26-3.89ZM27.61,77.77h.98l-.13-.46c-.12-.41-.24-.86-.35-1.28h-.02c-.1.43-.21.87-.34,1.28l-.13.46Z"/>
    <path class="cls-2" d="M30.27,75.47h1.04c1.19,0,1.9.64,1.9,1.93s-.71,1.96-1.87,1.96h-1.08v-3.89ZM31.27,78.79c.77,0,1.22-.43,1.22-1.39s-.45-1.35-1.22-1.35h-.29v2.74h.29Z"/>
    <path class="cls-2" d="M35.19,75.47h1.25c.8,0,1.39.24,1.39.96,0,.37-.2.73-.54.84v.02c.43.1.74.4.74.92,0,.78-.64,1.14-1.5,1.14h-1.35v-3.89ZM36.38,77.07c.53,0,.76-.21.76-.54,0-.37-.25-.51-.75-.51h-.49v1.05h.48ZM36.47,78.81c.57,0,.87-.2.87-.63,0-.4-.3-.58-.87-.58h-.57v1.21h.57Z"/>
    <path class="cls-2" d="M38.75,75.47h1.31c.81,0,1.44.29,1.44,1.16,0,.59-.3.95-.77,1.11l.92,1.62h-.79l-.83-1.51h-.58v1.51h-.71v-3.89ZM39.99,77.29c.53,0,.82-.22.82-.65s-.29-.59-.82-.59h-.54v1.25h.54Z"/>
    <path class="cls-2" d="M42.28,75.47h2.35v.59h-1.64v.98h1.39v.59h-1.39v1.13h1.7v.59h-2.41v-3.89Z"/>
    <path class="cls-2" d="M45.49,75.47h.71v3.89h-.71v-3.89Z"/>
    <path class="cls-2" d="M46.91,78.86l.38-.46c.28.27.67.42,1.04.42.43,0,.67-.2.67-.49s-.25-.41-.6-.56l-.53-.23c-.39-.16-.79-.46-.79-1.03,0-.62.55-1.11,1.31-1.11.47,0,.9.19,1.21.48l-.38.46c-.24-.21-.53-.33-.83-.33-.36,0-.59.17-.59.45,0,.3.29.4.61.54l.52.21c.46.2.79.49.79,1.05,0,.63-.52,1.16-1.4,1.16-.54,0-1.03-.2-1.4-.57Z"/>
    <path class="cls-2" d="M50.43,75.47h.71v3.89h-.71v-3.89Z"/>
    <path class="cls-2" d="M51.92,77.43c0-1.27.81-2.03,1.84-2.03.55,0,.93.24,1.18.49l-.37.43c-.2-.19-.42-.31-.78-.31-.68,0-1.14.52-1.14,1.39s.4,1.41,1.18,1.41c.21,0,.42-.06.54-.17v-.83h-.72v-.58h1.36v1.72c-.26.26-.71.46-1.24.46-1.05,0-1.84-.71-1.84-2Z"/>
  </g>
  <circle class="cls-5" cx="75" cy="106" r="4"/>
  <g>
    <path class="cls-2" d="M47.32,105.02h.68v1.76h.02l1.31-1.76h.75l-1.15,1.53,1.34,2.38h-.75l-1-1.82-.53.69v1.13h-.68v-3.9Z"/>
    <path class="cls-2" d="M50.41,106.96c0-1.26.67-2.01,1.65-2.01s1.65.75,1.65,2.01-.67,2.04-1.65,2.04-1.65-.78-1.65-2.04ZM53.02,106.96c0-.87-.38-1.38-.95-1.38s-.95.52-.95,1.38.37,1.43.95,1.43.95-.56.95-1.43Z"/>
    <path class="cls-2" d="M54.47,105.02h1.2c.77,0,1.34.24,1.34.96,0,.37-.19.73-.51.85v.02c.41.1.71.4.71.93,0,.78-.62,1.15-1.44,1.15h-1.3v-3.9ZM55.61,106.63c.51,0,.73-.21.73-.54,0-.37-.24-.51-.72-.51h-.47v1.05h.46ZM55.7,108.37c.54,0,.84-.2.84-.63,0-.4-.29-.58-.84-.58h-.55v1.21h.55Z"/>
    <path class="cls-2" d="M57.89,105.02h.68v3.31h1.54v.6h-2.22v-3.9Z"/>
    <path class="cls-2" d="M60.76,105.02h2.26v.6h-1.58v.98h1.34v.6h-1.34v1.13h1.63v.6h-2.32v-3.9Z"/>
    <path class="cls-2" d="M63.85,105.02h.73l1.12,2.15c.14.26.26.57.38.88h.02c-.04-.42-.09-.9-.09-1.32v-1.71h.63v3.9h-.73l-1.12-2.15c-.14-.26-.26-.57-.38-.88h-.02c.04.41.09.89.09,1.33v1.71h-.63v-3.9Z"/>
    <path class="cls-2" d="M67.35,108.5l1.79-2.88h-1.62v-.6h2.46v.43l-1.8,2.88h1.81v.6h-2.65v-.42Z"/>
  </g>
</svg>