<?xml version="1.0" encoding="UTF-8"?>
<svg id="Ebene_1" data-name="Ebene 1" xmlns="http://www.w3.org/2000/svg" xmlns:xlink="http://www.w3.org/1999/xlink" viewBox="0 0 332 240">
  <defs>
    <style>
      .cls-1 {
        fill: url(#Unbenannter_Verlauf_9-4);
      }

      .cls-1, .cls-2, .cls-3, .cls-4, .cls-5, .cls-6, .cls-7, .cls-8, .cls-9, .cls-10, .cls-11, .cls-12, .cls-13, .cls-14, .cls-15, .cls-16, .cls-17, .cls-18, .cls-19 {
        fill-rule: evenodd;
      }

      .cls-2 {
        fill: url(#Unbenannter_Verlauf_9-3);
      }

      .cls-3 {
        fill: url(#Unbenannter_Verlauf_9-2);
      }

      .cls-4 {
        fill: url(#Unbenannter_Verlauf_9-8);
      }

      .cls-5 {
        fill: url(#Unbenannter_Verlauf_9-6);
      }

      .cls-6 {
        fill: url(#Unbenannter_Verlauf_9-5);
      }

      .cls-7 {
        fill: url(#Unbenannter_Verlauf_9-9);
      }

      .cls-8 {
        fill: url(#Unbenannter_Verlauf_9-7);
      }

      .cls-9 {
        fill: url(#Unbenannter_Verlauf_9);
      }

      .cls-10 {
        fill: url(#Unbenannter_Verlauf_9-17);
      }

      .cls-11 {
        fill: url(#Unbenannter_Verlauf_9-12);
      }

      .cls-12 {
        fill: url(#Unbenannter_Verlauf_9-11);
      }

      .cls-13 {
        fill: url(#Unbenannter_Verlauf_9-10);
      }

      .cls-14 {
        fill: url(#Unbenannter_Verlauf_9-14);
      }

      .cls-15 {
        fill: url(#Unbenannter_Verlauf_9-13);
      }

      .cls-16 {
        fill: url(#Unbenannter_Verlauf_9-15);
      }

      .cls-17 {
        fill: url(#Unbenannter_Verlauf_9-18);
      }

      .cls-18 {
        fill: url(#Unbenannter_Verlauf_9-16);
      }

      .cls-19 {
        fill: url(#Unbenannter_Verlauf_9-19);
      }
    </style>
    <linearGradient id="Unbenannter_Verlauf_9" data-name="Unbenannter Verlauf 9" x1="101.67" y1="63.11" x2="105.17" y2="49.43" gradientUnits="userSpaceOnUse">
      <stop offset="0" stop-color="#fff" stop-opacity="0"/>
      <stop offset=".66" stop-color="#f79330"/>
    </linearGradient>
    <linearGradient id="Unbenannter_Verlauf_9-2" data-name="Unbenannter Verlauf 9" x1="115.36" y1="87.19" x2="118.86" y2="73.51" gradientTransform="translate(-44.05 -5.45) rotate(-.87)" xlink:href="#Unbenannter_Verlauf_9"/>
    <linearGradient id="Unbenannter_Verlauf_9-3" data-name="Unbenannter Verlauf 9" x1="-63.95" y1="79.03" x2="-60.45" y2="65.35" gradientTransform="translate(112.74 19.64) rotate(2.2)" xlink:href="#Unbenannter_Verlauf_9"/>
    <linearGradient id="Unbenannter_Verlauf_9-4" data-name="Unbenannter Verlauf 9" x1="-36.58" y1="94.83" x2="-33.09" y2="81.14" gradientTransform="translate(112.74 19.64) rotate(2.2)" xlink:href="#Unbenannter_Verlauf_9"/>
    <linearGradient id="Unbenannter_Verlauf_9-5" data-name="Unbenannter Verlauf 9" x1="81.26" y1="157.2" x2="84.75" y2="143.51" gradientTransform="translate(112.74 19.64) rotate(2.2)" xlink:href="#Unbenannter_Verlauf_9"/>
    <linearGradient id="Unbenannter_Verlauf_9-6" data-name="Unbenannter Verlauf 9" x1="110.6" y1="172.92" x2="114.1" y2="159.23" gradientTransform="translate(112.74 19.64) rotate(2.2)" xlink:href="#Unbenannter_Verlauf_9"/>
    <linearGradient id="Unbenannter_Verlauf_9-7" data-name="Unbenannter Verlauf 9" x1="36.38" y1="88.22" x2="39.88" y2="74.54" gradientTransform="translate(67.06 7.19) rotate(1.3)" xlink:href="#Unbenannter_Verlauf_9"/>
    <linearGradient id="Unbenannter_Verlauf_9-8" data-name="Unbenannter Verlauf 9" x1="66.44" y1="103.38" x2="69.94" y2="89.7" gradientTransform="translate(67.06 7.19) rotate(1.3)" xlink:href="#Unbenannter_Verlauf_9"/>
    <linearGradient id="Unbenannter_Verlauf_9-9" data-name="Unbenannter Verlauf 9" x1="95.04" y1="119.57" x2="98.53" y2="105.89" gradientTransform="translate(67.06 7.19) rotate(1.3)" xlink:href="#Unbenannter_Verlauf_9"/>
    <linearGradient id="Unbenannter_Verlauf_9-10" data-name="Unbenannter Verlauf 9" x1="124.63" y1="136.24" x2="128.13" y2="122.55" gradientTransform="translate(67.06 7.19) rotate(1.3)" xlink:href="#Unbenannter_Verlauf_9"/>
    <linearGradient id="Unbenannter_Verlauf_9-11" data-name="Unbenannter Verlauf 9" x1="153.71" y1="151.92" x2="157.21" y2="138.24" gradientTransform="translate(67.06 7.19) rotate(1.3)" xlink:href="#Unbenannter_Verlauf_9"/>
    <linearGradient id="Unbenannter_Verlauf_9-12" data-name="Unbenannter Verlauf 9" x1="182.29" y1="167.12" x2="185.79" y2="153.44" gradientTransform="translate(67.06 7.19) rotate(1.3)" xlink:href="#Unbenannter_Verlauf_9"/>
    <linearGradient id="Unbenannter_Verlauf_9-13" data-name="Unbenannter Verlauf 9" x1="130.39" y1="79.45" x2="133.89" y2="65.77" xlink:href="#Unbenannter_Verlauf_9"/>
    <linearGradient id="Unbenannter_Verlauf_9-14" data-name="Unbenannter Verlauf 9" x1="159.6" y1="96.28" x2="163.1" y2="82.6" xlink:href="#Unbenannter_Verlauf_9"/>
    <linearGradient id="Unbenannter_Verlauf_9-15" data-name="Unbenannter Verlauf 9" x1="188.32" y1="112.62" x2="191.82" y2="98.94" xlink:href="#Unbenannter_Verlauf_9"/>
    <linearGradient id="Unbenannter_Verlauf_9-16" data-name="Unbenannter Verlauf 9" x1="217.04" y1="128.96" x2="220.53" y2="115.28" xlink:href="#Unbenannter_Verlauf_9"/>
    <linearGradient id="Unbenannter_Verlauf_9-17" data-name="Unbenannter Verlauf 9" x1="245.75" y1="145.3" x2="249.25" y2="131.62" xlink:href="#Unbenannter_Verlauf_9"/>
    <linearGradient id="Unbenannter_Verlauf_9-18" data-name="Unbenannter Verlauf 9" x1="274.47" y1="162.63" x2="277.97" y2="148.95" xlink:href="#Unbenannter_Verlauf_9"/>
    <linearGradient id="Unbenannter_Verlauf_9-19" data-name="Unbenannter Verlauf 9" x1="127.94" y1="152.08" x2="133.82" y2="129.12" xlink:href="#Unbenannter_Verlauf_9"/>
  </defs>
  <path class="cls-9" d="M99.97,42.45l-11.22,7.19c-1.91,1.22-1.84,4.04.12,5.17l15.49,8.91,16.22-10.14c1.61-1.01,1.56-3.38-.1-4.31l-12.57-7.05c-2.49-1.39-5.54-1.31-7.94.23Z"/>
  <path class="cls-3" d="M70.61,59.36l-11.11,7.36c-1.89,1.25-1.78,4.07.2,5.17l15.62,8.67,16.07-10.38c1.6-1.03,1.51-3.4-.17-4.31l-12.68-6.86c-2.51-1.36-5.56-1.22-7.94.35Z"/>
  <path class="cls-2" d="M44.91,75.46l-11.49,6.76c-1.96,1.15-2,3.96-.07,5.17l15.14,9.49,16.6-9.51c1.65-.95,1.69-3.32.06-4.31l-12.29-7.53c-2.43-1.49-5.49-1.52-7.94-.07Z"/>
  <path class="cls-1" d="M71.65,92.29l-11.49,6.76c-1.96,1.15-2,3.96-.07,5.17l15.14,9.49,16.6-9.51c1.65-.95,1.69-3.32.06-4.31l-12.29-7.53c-2.43-1.49-5.49-1.52-7.94-.07Z"/>
  <path class="cls-6" d="M187.01,159.13l-11.49,6.76c-1.96,1.15-2,3.96-.07,5.17l15.14,9.49,16.6-9.51c1.65-.95,1.69-3.32.06-4.31l-12.29-7.53c-2.43-1.49-5.49-1.52-7.94-.07Z"/>
  <path class="cls-5" d="M215.73,175.97l-11.49,6.76c-1.96,1.15-2,3.96-.07,5.17l15.14,9.49,16.6-9.51c1.65-.95,1.69-3.32.06-4.31l-12.29-7.53c-2.43-1.49-5.49-1.52-7.94-.07Z"/>
  <path class="cls-8" d="M100.2,75.52l-11.38,6.93c-1.94,1.18-1.93,4,0,5.17l15.28,9.25,16.45-9.77c1.64-.97,1.63-3.34,0-4.31l-12.41-7.34c-2.45-1.45-5.51-1.43-7.94.05Z"/>
  <path class="cls-4" d="M129.91,91.37l-11.38,6.93c-1.94,1.18-1.93,4,0,5.17l15.28,9.25,16.45-9.77c1.64-.97,1.63-3.34,0-4.31l-12.41-7.34c-2.45-1.45-5.51-1.43-7.94.05Z"/>
  <path class="cls-7" d="M158.13,108.2l-11.38,6.93c-1.94,1.18-1.93,4,0,5.17l15.28,9.25,16.45-9.77c1.64-.97,1.63-3.34,0-4.31l-12.41-7.34c-2.45-1.45-5.51-1.43-7.94.05Z"/>
  <path class="cls-13" d="M187.35,125.53l-11.38,6.93c-1.94,1.18-1.93,4,0,5.17l15.28,9.25,16.45-9.77c1.64-.97,1.63-3.34,0-4.31l-12.41-7.34c-2.45-1.45-5.51-1.43-7.94.05Z"/>
  <path class="cls-12" d="M216.06,141.87l-11.38,6.93c-1.94,1.18-1.93,4,0,5.17l15.28,9.25,16.45-9.77c1.64-.97,1.63-3.34,0-4.31l-12.41-7.34c-2.45-1.45-5.51-1.43-7.94.05Z"/>
  <path class="cls-11" d="M244.28,157.72l-11.38,6.93c-1.94,1.18-1.93,4,0,5.17l15.28,9.25,16.45-9.77c1.64-.97,1.63-3.34,0-4.31l-12.41-7.34c-2.45-1.45-5.51-1.43-7.94.05Z"/>
  <path class="cls-15" d="M128.69,58.79l-11.22,7.19c-1.91,1.22-1.84,4.04.12,5.17l15.49,8.91,16.22-10.14c1.61-1.01,1.56-3.38-.1-4.31l-12.57-7.05c-2.49-1.39-5.54-1.31-7.94.23Z"/>
  <path class="cls-14" d="M157.9,75.63l-11.22,7.19c-1.91,1.22-1.84,4.04.12,5.17l15.49,8.91,16.22-10.14c1.61-1.01,1.56-3.38-.1-4.31l-12.57-7.05c-2.49-1.39-5.54-1.31-7.94.23Z"/>
  <path class="cls-16" d="M186.62,91.97l-11.22,7.19c-1.91,1.22-1.84,4.04.12,5.17l15.49,8.91,16.22-10.14c1.61-1.01,1.56-3.38-.1-4.31l-12.57-7.05c-2.49-1.39-5.54-1.31-7.94.23Z"/>
  <path class="cls-18" d="M215.34,108.3l-11.22,7.19c-1.91,1.22-1.84,4.04.12,5.17l15.49,8.91,16.22-10.14c1.61-1.01,1.56-3.38-.1-4.31l-12.57-7.05c-2.49-1.39-5.54-1.31-7.94.23Z"/>
  <path class="cls-10" d="M244.06,124.64l-11.22,7.19c-1.91,1.22-1.84,4.04.12,5.17l15.49,8.91,16.22-10.14c1.61-1.01,1.56-3.38-.1-4.31l-12.57-7.05c-2.49-1.39-5.54-1.31-7.94.23Z"/>
  <path class="cls-17" d="M272.77,141.97l-11.22,7.19c-1.91,1.22-1.84,4.04.12,5.17l15.49,8.91,16.22-10.14c1.61-1.01,1.56-3.38-.1-4.31l-12.57-7.05c-2.49-1.39-5.54-1.31-7.94.23Z"/>
  <path class="cls-19" d="M89.57,116.12l11.59-6.98c2.11-1.27,4.75-1.3,6.89-.08l67.12,38.34c2.02,1.15,2.03,4.06.02,5.23l-10.66,6.19c-2.6,1.51-5.81,1.51-8.41.01l-66.49-38.38c-1.66-.96-1.68-3.34-.04-4.33Z"/>
</svg>