<svg width="200" height="38" viewBox="0 0 200 38" fill="none" xmlns="http://www.w3.org/2000/svg"><g id="QUALITYBYTES_logo"><path id="BYTES" fill-rule="evenodd" clip-rule="evenodd" d="M142.44 11.515h4.31C147.31 11.515 147.88 11.565 148.46 11.655 149.04 11.745 149.56 11.935 150.01 12.225 150.47 12.515 150.84 12.915 151.13 13.435 151.42 13.945 151.56 14.625 151.56 15.475 151.56 16.235 151.34 16.895 150.88 17.465 150.43 18.025 149.76 18.405 148.87 18.585V18.625C149.36 18.665 149.82 18.785 150.22 18.975 150.63 19.165 150.98 19.415 151.28 19.735S151.81 20.425 151.97 20.865C152.13 21.305 152.21 21.785 152.21 22.305 152.21 23.165 152.04 23.865 151.71 24.405 151.38 24.945 150.96 25.375 150.46 25.685 149.96 25.995 149.42 26.205 148.83 26.315 148.25 26.425 147.7 26.485 147.19 26.485h-4.78V11.515H142.44zm49.25 12.2C192.06 24.345 192.53 24.825 193.12 25.135 193.7 25.445 194.37 25.595 195.12 25.595 195.58 25.595 196.02 25.525 196.43 25.385 196.84 25.245 197.19 25.045 197.49 24.795 197.79 24.545 198.03 24.235 198.21 23.875 198.39 23.515 198.48 23.115 198.48 22.665 198.48 22.145 198.37 21.715 198.15 21.375S197.64 20.755 197.27 20.545C196.9 20.325 196.49 20.135 196.03 19.985 195.57 19.835 195.1 19.675 194.61 19.525 194.13 19.365 193.65 19.195 193.2 18.995 192.74 18.795 192.33 18.545 191.96 18.225S191.3 17.505 191.08 17.035C190.86 16.555 190.75 15.965 190.75 15.255 190.75 14.595 190.88 14.005 191.14 13.485 191.4 12.975 191.75 12.545 192.2 12.195 192.64 11.845 193.15 11.585 193.73 11.415 194.31 11.235 194.91 11.155 195.55 11.155 196.37 11.155 197.12 11.305 197.82 11.585 198.52 11.865 199.12 12.355 199.63 13.035L198.42 13.905C198.07 13.415 197.65 13.045 197.18 12.795S196.15 12.425 195.5 12.425C195.05 12.425 194.62 12.485 194.21 12.605 193.8 12.725 193.45 12.895 193.14 13.135 192.84 13.365 192.59 13.655 192.41 14.015 192.23 14.365 192.13 14.785 192.13 15.265 192.13 16.015 192.32 16.585 192.7 16.985 193.08 17.385 193.56 17.705 194.13 17.935S195.32 18.375 195.99 18.545C196.66 18.725 197.28 18.955 197.85 19.255S198.9 19.965 199.28 20.495C199.66 21.025 199.85 21.755 199.85 22.685 199.85 23.355 199.72 23.955 199.47 24.485 199.22 25.005 198.87 25.445 198.44 25.805S197.52 26.435 196.95 26.615C196.39 26.795 195.8 26.885 195.2 26.885 194.21 26.885 193.3 26.715 192.47 26.365 191.64 26.025 190.93 25.435 190.34 24.625L191.67 23.735 191.69 23.715zm-12.93-12.2H187.91v1.27H180.15v5.33H187.42v1.27H180.15v5.83H188.25v1.27H178.76V11.515zM171.02 12.785H165.9v-1.27h11.63v1.27h-5.12v13.7H171.02v-13.7zm-13.3 7.25v6.45H159.12v-6.45L164.61 11.515h-1.56L158.42 18.615 153.9 11.515H152.23L157.72 20.035zm-13.89-2.05H146.72C147.44 17.985 148.02 17.895 148.48 17.725 148.94 17.555 149.28 17.335 149.54 17.075 149.79 16.825 149.96 16.555 150.05 16.265 150.13 15.975 150.17 15.715 150.17 15.475 150.17 14.955 150.08 14.515 149.91 14.175 149.73 13.825 149.5 13.555 149.2 13.355 148.91 13.155 148.56 13.005 148.16 12.925 147.77 12.845 147.35 12.795 146.91 12.795h-3.09v5.2L143.83 17.985zm0 7.23h3.19C147.84 25.215 148.5 25.115 149 24.915S149.88 24.475 150.15 24.175C150.42 23.875 150.6 23.565 150.69 23.235 150.78 22.905 150.83 22.605 150.83 22.335 150.83 21.785 150.72 21.315 150.51 20.915 150.3 20.525 150.02 20.205 149.68 19.955S148.96 19.525 148.53 19.415 147.66 19.245 147.23 19.245H143.83v5.96V25.215z" fill="#2097c8"/><path id="QUALITY" fill-rule="evenodd" clip-rule="evenodd" d="M65.5198 26.485h-9.07c-1.17.0-2.25-.169999999999998-3.24-.52S51.3598 25.115 50.6398 24.455C49.9198 23.795 49.3598 22.985 48.9498 22.045 48.5398 21.105 48.3398 20.025 48.3398 18.815 48.3398 17.685 48.5498 16.655 48.9598 15.705 49.3798 14.765 49.9398 13.955 50.6598 13.275 51.3798 12.595 52.2198 12.075 53.1998 11.695 54.1698 11.325 55.2198 11.135 56.3298 11.135s2.16.19 3.13.57 1.82.91 2.54 1.59 1.29 1.48 1.7 2.42S64.3198 17.685 64.3198 18.815C64.3198 19.355 64.2598 19.875 64.1398 20.375 64.0198 20.885 63.8398 21.365 63.5998 21.815 63.3598 22.265 63.0498 22.675 62.6698 23.035 62.2898 23.395 61.8498 23.685 61.3398 23.915V23.955H65.5198v2.54V26.485zm66.3702-6.39L126.54 11.935v2.5H122.27v12.05h-3.3V14.435H114.7v-2.92h15.66L133.53 17.115 136.89 11.515H140.8l-5.62 8.58v6.38H131.88v-6.38H131.89zm-22.11-8.58h3.3v14.97h-3.3V11.515zm-11.1802.0H101.9v11.92h6.11v3.04H98.5998V11.505 11.515zm-10.87.0h2.73L96.9698 26.485H93.2498L91.9598 23.315h-5.81l-1.25 3.17h-3.64l6.47-14.97zm1.27 4.36L87.1798 20.525h3.66l-1.84-4.65zm-9.24 4.84C79.7598 21.605 79.6298 22.425 79.3598 23.165 79.0898 23.915 78.6998 24.565 78.1698 25.105 77.6398 25.655 76.9798 26.085 76.1898 26.395 75.3998 26.705 74.4898 26.855 73.4598 26.855S71.4998 26.695 70.7098 26.395C69.9198 26.085 69.2598 25.655 68.7298 25.105S67.7998 23.905 67.5398 23.165C67.2698 22.415 67.1398 21.605 67.1398 20.715v-9.2H70.4398v9.07C70.4398 21.045 70.5098 21.485 70.6598 21.875 70.8098 22.265 71.0198 22.615 71.2798 22.905 71.5498 23.195 71.8698 23.415 72.2398 23.585 72.6098 23.745 73.0198 23.825 73.4598 23.825S74.2998 23.745 74.6698 23.585C75.0398 23.425 75.3498 23.195 75.6198 22.905 75.8898 22.615 76.0998 22.275 76.2398 21.875 76.3898 21.485 76.4598 21.055 76.4598 20.585v-9.07h3.3v9.2zm-28.01-1.91C51.7498 19.455 51.8698 20.055 52.1098 20.625 52.3498 21.185 52.6798 21.675 53.0898 22.095 53.5098 22.515 53.9898 22.835 54.5398 23.075 55.0898 23.315 55.6798 23.435 56.3198 23.435S57.5498 23.315 58.0998 23.075C58.6498 22.835 59.1298 22.505 59.5498 22.095 59.9698 21.675 60.2898 21.195 60.5298 20.625 60.7698 20.065 60.8898 19.455 60.8898 18.805S60.7698 17.555 60.5298 16.985C60.2898 16.425 59.9598 15.935 59.5498 15.515 59.1298 15.105 58.6498 14.775 58.0998 14.535 57.5498 14.295 56.9598 14.175 56.3198 14.175S55.0898 14.295 54.5398 14.535s-1.03.57-1.45.98C52.6698 15.935 52.3498 16.425 52.1098 16.985 51.8698 17.545 51.7498 18.155 51.7498 18.805z" fill="#fff"/><path id="logo" fill-rule="evenodd" clip-rule="evenodd" d="M0 8.18498C10.33 14.435 20.32 20.485 30.65 26.735l5.08-3.17C37.45 22.275 38.1 20.765 38.1 19.005 38.1 17.245 37.45 15.745 35.73 14.455c-1.23-.9-2.58-1.6-3.87-2.44C26.1 8.53498 20.35 5.03498 14.59 1.55498c-4.08-2.360001-8.55.0-8.65 3.7v.44l3.27 1.98V7.27498C9.26 5.85498 9.53 5.01498 10.57 4.57498c1.7-.72 2.72.0800000000000001 4.45 1.08 5.55 3.36 11.1 6.71002 16.65 10.07002 1.41.83 2.8 1.4 2.8 3.29s-1.4 2.46-2.8 3.29L30.65 22.925.0 4.35498v3.84V8.18498zM5.94 32.565V14.035l29.39 17.79-3.17 1.92L9.2 19.845v10.02C9.2 31.825 9.33 32.915 10.56 33.435 12.26 34.155 13.28 33.355 15.01 32.355 16.64 31.365 18.88 30.015 20.58 28.985l3.17 1.92c-2.82 1.71-6.26 3.79-9.17 5.56C10.45 38.845 5.93 36.355 5.93 32.575L5.94 32.565z" fill="#2097c8"/></g></svg>